# 3ds Max Wavefront OBJ Exporter v0.97b - (c)2007 guruware
# File Created: 02.11.2018 16:11:47

mtllib gem.mtl

#
# object GeoSphere001
#

v  0.0377 6.1042 0.0392
v  9.5923 5.5619 0.0392
v  2.9902 5.5619 -9.0478
v  11.6494 4.1329 0.0392
v  8.9720 5.1522 -6.4520
v  3.6259 4.1329 -11.0042
v  -7.6922 5.5619 -5.5769
v  -3.3749 5.1522 -10.4637
v  -9.3564 4.1329 -6.7860
v  -7.6922 5.5619 5.6553
v  -11.0057 5.1522 0.0392
v  -9.3564 4.1329 6.8644
v  2.9902 5.5619 9.1262
v  -3.3749 5.1522 10.5421
v  3.6259 4.1329 11.0826
v  8.9720 5.1522 6.5303
v  15.3710 -0.5747 5.0213
v  15.3710 -0.5747 -4.9429
v  10.6697 -5.5128 7.7638
v  12.5364 -6.6664 0.0392
v  10.6697 -5.5128 -7.6854
v  9.5142 -0.5747 -13.0041
v  0.0377 -0.5747 -16.0832
v  3.9000 -6.6664 -11.8478
v  -4.0234 -5.5128 -12.4595
v  -9.4388 -0.5747 -13.0041
v  -15.2956 -0.5747 -4.9429
v  -10.0739 -6.6664 -7.3074
v  -13.1042 -5.5128 0.0392
v  -15.2956 -0.5747 5.0213
v  -9.4388 -0.5747 13.0825
v  -10.0739 -6.6664 7.3857
v  -4.0234 -5.5128 12.5379
v  0.0377 -0.5747 16.1616
v  9.5142 -0.5747 13.0825
v  3.9000 -6.6664 11.9261
v  0.0377 -17.2000 0.0392
v  -2.4064 -11.8750 -7.4830
v  6.4365 -11.8750 -4.6098
v  -7.8716 -11.8750 0.0392
v  -2.4064 -11.8750 7.5614
v  6.4365 -11.8750 4.6882
# 42 vertices

vn 0.0566 0.9975 -0.0411
vn 0.5673 0.8167 -0.1058
vn 0.0993 0.9924 -0.0721
vn 0.2759 0.8167 -0.5069
vn -0.0216 0.9975 -0.0666
vn 0.0747 0.8167 -0.5722
vn -0.0379 0.9924 -0.1167
vn -0.3968 0.8167 -0.4190
vn -0.0700 0.9975 0.0000
vn -0.5211 0.8167 -0.2479
vn -0.1227 0.9924 0.0000
vn -0.5211 0.8167 0.2479
vn -0.0216 0.9975 0.0666
vn -0.3968 0.8167 0.4190
vn -0.0379 0.9924 0.1167
vn 0.0747 0.8167 0.5722
vn 0.0566 0.9975 0.0411
vn 0.2759 0.8167 0.5069
vn 0.0993 0.9924 0.0721
vn 0.5673 0.8167 0.1058
vn 0.7845 0.6202 -0.0000
vn 0.7679 -0.5799 0.2722
vn 0.9067 -0.4219 -0.0000
vn 0.7679 -0.5799 -0.2722
vn 0.2424 0.6202 -0.7461
vn 0.4961 -0.5799 -0.6462
vn 0.2802 -0.4219 -0.8623
vn -0.0216 -0.5799 -0.8144
vn -0.6347 0.6202 -0.4611
vn -0.4613 -0.5799 -0.6715
vn -0.7335 -0.4219 -0.5329
vn -0.7812 -0.5799 -0.2312
vn -0.6347 0.6202 0.4611
vn -0.7812 -0.5799 0.2312
vn -0.7335 -0.4219 0.5329
vn -0.4613 -0.5799 0.6715
vn 0.2424 0.6202 0.7461
vn -0.0216 -0.5799 0.8144
vn 0.2802 -0.4219 0.8623
vn 0.4961 -0.5799 0.6462
vn 0.7395 -0.4056 -0.5373
vn 0.3695 0.7146 -0.5940
vn 0.6475 0.5995 -0.4704
vn 0.6791 0.7146 -0.1679
vn -0.2825 -0.4056 -0.8693
vn -0.4507 0.7146 -0.5350
vn -0.2473 0.5995 -0.7612
vn 0.0502 0.7146 -0.6978
vn -0.9140 -0.4056 -0.0000
vn -0.6481 0.7146 0.2633
vn -0.8004 0.5995 -0.0000
vn -0.6481 0.7146 -0.2633
vn -0.2825 -0.4056 0.8693
vn 0.0502 0.7146 0.6978
vn -0.2473 0.5995 0.7612
vn -0.4507 0.7146 0.5350
vn 0.7395 -0.4056 0.5373
vn 0.6791 0.7146 0.1679
vn 0.6475 0.5995 0.4704
vn 0.3695 0.7146 0.5940
vn 0.1977 -0.7686 -0.6084
vn -0.0299 -0.6205 -0.7836
vn 0.2007 -0.7605 -0.6176
vn 0.4847 -0.6205 -0.6164
vn -0.5175 -0.7686 -0.3760
vn -0.7545 -0.6205 -0.2138
vn -0.5253 -0.7605 -0.3817
vn -0.4364 -0.6205 -0.6515
vn -0.5175 -0.7686 0.3760
vn -0.4364 -0.6205 0.6515
vn -0.5253 -0.7605 0.3817
vn -0.7545 -0.6205 0.2138
vn 0.1977 -0.7686 0.6084
vn 0.4847 -0.6205 0.6164
vn 0.2007 -0.7605 0.6176
vn -0.0299 -0.6205 0.7836
vn 0.6397 -0.7686 0.0000
vn 0.7360 -0.6205 -0.2705
vn 0.6494 -0.7605 0.0000
vn 0.7360 -0.6205 0.2705
# 80 vertex normals

vt 0.6000 1.0000 16.1224
vt 0.5000 0.8238 16.1224
vt 0.7000 0.8238 16.1224
vt 0.5000 0.6476 16.1224
vt 0.6000 0.6762 16.1224
vt 0.7000 0.6476 16.1224
vt 0.8000 1.0000 16.1224
vt 0.9000 0.8238 16.1224
vt 0.8000 0.6762 16.1224
vt 0.9000 0.6476 16.1224
vt 0.0000 1.0000 16.1224
vt -0.1000 0.8238 16.1224
vt 0.1000 0.8238 16.1224
vt -0.1000 0.6476 16.1224
vt 0.0000 0.6762 16.1224
vt 0.1000 0.6476 16.1224
vt 0.2000 1.0000 16.1224
vt 0.3000 0.8238 16.1224
vt 0.2000 0.6762 16.1224
vt 0.3000 0.6476 16.1224
vt 0.4000 1.0000 16.1224
vt 0.4000 0.6762 16.1224
vt 0.4500 0.5000 16.1224
vt 0.5500 0.5000 16.1224
vt 0.4000 0.3524 16.1224
vt 0.5000 0.3238 16.1224
vt 0.6000 0.3524 16.1224
vt 0.6500 0.5000 16.1224
vt 0.7500 0.5000 16.1224
vt 0.7000 0.3238 16.1224
vt 0.8000 0.3524 16.1224
vt 0.8500 0.5000 16.1224
vt 0.9500 0.5000 16.1224
vt 0.9000 0.3238 16.1224
vt -0.0500 0.5000 16.1224
vt -0.1000 0.3238 16.1224
vt 0.0000 0.3524 16.1224
vt 0.0500 0.5000 16.1224
vt 0.1500 0.5000 16.1224
vt 0.1000 0.3238 16.1224
vt 0.2000 0.3524 16.1224
vt 0.2500 0.5000 16.1224
vt 0.3500 0.5000 16.1224
vt 0.3000 0.3238 16.1224
vt 0.7000 0.0000 16.1224
vt 0.8000 0.1762 16.1224
vt 0.6000 0.1762 16.1224
vt -0.1000 0.0000 16.1224
vt 0.0000 0.1762 16.1224
vt -0.2000 0.1762 16.1224
vt 0.1000 0.0000 16.1224
vt 0.2000 0.1762 16.1224
vt 0.3000 0.0000 16.1224
vt 0.4000 0.1762 16.1224
vt 0.5000 0.0000 16.1224
# 55 texture coords

g GeoSphere001
usemtl wire_225198087
s off
f 1/1/1 2/2/1 3/3/1 
f 2/2/2 4/4/2 5/5/2 
f 2/2/3 5/5/3 3/3/3 
f 3/3/4 5/5/4 6/6/4 
f 1/7/5 3/3/5 7/8/5 
f 3/3/6 6/6/6 8/9/6 
f 3/3/7 8/9/7 7/8/7 
f 7/8/8 8/9/8 9/10/8 
f 1/11/9 7/12/9 10/13/9 
f 7/12/10 9/14/10 11/15/10 
f 7/12/11 11/15/11 10/13/11 
f 10/13/12 11/15/12 12/16/12 
f 1/17/13 10/13/13 13/18/13 
f 10/13/14 12/16/14 14/19/14 
f 10/13/15 14/19/15 13/18/15 
f 13/18/16 14/19/16 15/20/16 
f 1/21/17 13/18/17 2/2/17 
f 13/18/18 15/20/18 16/22/18 
f 13/18/19 16/22/19 2/2/19 
f 2/2/20 16/22/20 4/4/20 
f 4/4/21 17/23/21 18/24/21 
f 17/23/22 19/25/22 20/26/22 
f 17/23/23 20/26/23 18/24/23 
f 18/24/24 20/26/24 21/27/24 
f 6/6/25 22/28/25 23/29/25 
f 22/28/26 21/27/26 24/30/26 
f 22/28/27 24/30/27 23/29/27 
f 23/29/28 24/30/28 25/31/28 
f 9/10/29 26/32/29 27/33/29 
f 26/32/30 25/31/30 28/34/30 
f 26/32/31 28/34/31 27/33/31 
f 27/35/32 28/36/32 29/37/32 
f 12/16/33 30/38/33 31/39/33 
f 30/38/34 29/37/34 32/40/34 
f 30/38/35 32/40/35 31/39/35 
f 31/39/36 32/40/36 33/41/36 
f 15/20/37 34/42/37 35/43/37 
f 34/42/38 33/41/38 36/44/38 
f 34/42/39 36/44/39 35/43/39 
f 35/43/40 36/44/40 19/25/40 
f 21/27/41 22/28/41 18/24/41 
f 22/28/42 6/6/42 5/5/42 
f 22/28/43 5/5/43 18/24/43 
f 18/24/44 5/5/44 4/4/44 
f 25/31/45 26/32/45 23/29/45 
f 26/32/46 9/10/46 8/9/46 
f 26/32/47 8/9/47 23/29/47 
f 23/29/48 8/9/48 6/6/48 
f 29/37/49 30/38/49 27/35/49 
f 30/38/50 12/16/50 11/15/50 
f 30/38/51 11/15/51 27/35/51 
f 27/35/52 11/15/52 9/14/52 
f 33/41/53 34/42/53 31/39/53 
f 34/42/54 15/20/54 14/19/54 
f 34/42/55 14/19/55 31/39/55 
f 31/39/56 14/19/56 12/16/56 
f 19/25/57 17/23/57 35/43/57 
f 17/23/58 4/4/58 16/22/58 
f 17/23/59 16/22/59 35/43/59 
f 35/43/60 16/22/60 15/20/60 
f 37/45/61 38/46/61 39/47/61 
f 38/46/62 25/31/62 24/30/62 
f 38/46/63 24/30/63 39/47/63 
f 39/47/64 24/30/64 21/27/64 
f 37/48/65 40/49/65 38/50/65 
f 40/49/66 29/37/66 28/36/66 
f 40/49/67 28/36/67 38/50/67 
f 38/46/68 28/34/68 25/31/68 
f 37/51/69 41/52/69 40/49/69 
f 41/52/70 33/41/70 32/40/70 
f 41/52/71 32/40/71 40/49/71 
f 40/49/72 32/40/72 29/37/72 
f 37/53/73 42/54/73 41/52/73 
f 42/54/74 19/25/74 36/44/74 
f 42/54/75 36/44/75 41/52/75 
f 41/52/76 36/44/76 33/41/76 
f 37/55/77 39/47/77 42/54/77 
f 39/47/78 21/27/78 20/26/78 
f 39/47/79 20/26/79 42/54/79 
f 42/54/80 20/26/80 19/25/80 
# 0 polygons - 80 triangles

